<svg viewBox="173.747 85.849 60.823 67.68" width="60.823" height="67.68">
<path stroke="null" d="M 214.015 97.13 L 227.843 97.13 L 227.843 305.135 L 201.162 305.135 L 201.162 97.13 L 214.015 97.13 Z" fill="black" id="svg_5" transform="matrix(0.332723, 0, 0, 0.324777, 158.760773, 54.381058)"></path>
<rect stroke="null" id="svg_1" height="19.864" width="48.635" y="249.364" x="110.949" fill="black" style="" transform="matrix(0.332723, 0, 0, 0.324777, 158.760773, 54.381058)"></rect>
<path stroke="null" d="m103.28829,304.93573l-26.73065,0l0,-82.31063l-4.7873,0l0,82.31063l-26.73065,0l0,-208.00519l45.0826,0q5.58456,0 9.37528,2.82293t3.79073,6.98864l0,82.30502a13.39541,9.98537 0 0 1 -3.79073,7.12039a12.41012,9.2509 0 0 1 -9.37528,2.9715l-18.35194,0l0,3.5658l18.35194,0a12.41012,9.2509 0 0 1 9.37528,2.99393a13.39541,9.98537 0 0 1 3.79073,7.13161l0,92.10537l-0.00001,0zm-31.51795,-125.69457l4.7873,0l0,-62.40716l-4.7873,0l0,62.40716z" fill="black" id="svg_6" transform="matrix(0.332723, 0, 0, 0.324777, 158.760773, 54.381058)"></path>
<path stroke="null" d="m120.68368,304.89661q-5.58456,0 -9.37528,-2.82293t-3.79073,-6.98864l0,-198.19363l26.73065,0l0,188.10173l4.77226,0l0,-188.10173l26.73065,0l0,198.19363q0,4.1601 -3.79073,6.98303t-9.36024,2.82853l-31.91658,0l0,0.00001z" fill="black" id="svg_8" transform="matrix(-0.332723, 0, 0, -0.324777, 249.683329, 184.871928)"></path>
<path stroke="null" d="M 182.775 97.274 L 196.603 97.274 L 196.603 305.279 L 169.922 305.279 L 169.922 97.274 L 182.775 97.274 Z" fill="black" id="path-1" transform="matrix(0.332723, 0, 0, 0.324777, 158.760773, 54.381058)"></path>
</svg>